<svg width="700" height="280" viewBox="0 0 700 280" fill="none" xmlns="http://www.w3.org/2000/svg">
<g clip-path="url(#clip0)">
<line x1="0.5" y1="2.18557e-08" x2="0.499988" y2="280" stroke="#DEE2E6"/>
<line x1="340.5" y1="2.18557e-08" x2="340.5" y2="280" stroke="#DEE2E6"/>
<line x1="430.5" y1="2.18557e-08" x2="430.5" y2="280" stroke="#DEE2E6"/>
<line x1="520.5" y1="2.18557e-08" x2="520.5" y2="280" stroke="#DEE2E6"/>
<line x1="610.5" y1="2.18557e-08" x2="610.5" y2="280" stroke="#DEE2E6"/>
<line x1="699.5" y1="2.18557e-08" x2="699.5" y2="280" stroke="#DEE2E6"/>
<line y1="0.5" x2="700" y2="0.5" stroke="#DEE2E6"/>
<line y1="69.5" x2="700" y2="69.5" stroke="#DEE2E6"/>
<line y1="139.5" x2="700" y2="139.5" stroke="#DEE2E6"/>
<line y1="209.5" x2="700" y2="209.5" stroke="#DEE2E6"/>
<line y1="279.5" x2="700" y2="279.5" stroke="#DEE2E6"/>
<path d="M38.056 47.224C36.3013 47.224 34.9013 46.7667 33.856 45.852C32.8293 44.9187 32.316 43.6773 32.316 42.128V41.372C32.316 41.1853 32.4093 41.092 32.596 41.092H33.968C34.1547 41.092 34.248 41.1853 34.248 41.372V42.016C34.248 43.0613 34.6027 43.9013 35.312 44.536C36.0213 45.1707 36.964 45.488 38.14 45.488C39.2413 45.488 40.1093 45.1893 40.744 44.592C41.3787 43.9947 41.696 43.2107 41.696 42.24C41.696 41.6053 41.5467 41.0547 41.248 40.588C40.9493 40.1213 40.5107 39.692 39.932 39.3C39.3533 38.908 38.5227 38.4133 37.44 37.816C36.2827 37.2 35.368 36.6587 34.696 36.192C34.0427 35.7253 33.5107 35.156 33.1 34.484C32.6893 33.812 32.484 32.9907 32.484 32.02C32.484 30.508 32.9693 29.3227 33.94 28.464C34.9107 27.6053 36.208 27.176 37.832 27.176C39.568 27.176 40.9493 27.652 41.976 28.604C43.0027 29.556 43.516 30.816 43.516 32.384V33.028C43.516 33.2147 43.4227 33.308 43.236 33.308H41.836C41.6493 33.308 41.556 33.2147 41.556 33.028V32.412C41.556 31.3667 41.22 30.5267 40.548 29.892C39.876 29.2387 38.952 28.912 37.776 28.912C36.7307 28.912 35.9093 29.1827 35.312 29.724C34.7333 30.2653 34.444 31.0307 34.444 32.02C34.444 32.6547 34.584 33.1867 34.864 33.616C35.144 34.0453 35.5453 34.4373 36.068 34.792C36.6093 35.1467 37.4307 35.6227 38.532 36.22C39.8013 36.9293 40.772 37.536 41.444 38.04C42.1347 38.5253 42.676 39.0947 43.068 39.748C43.4787 40.3827 43.684 41.1667 43.684 42.1C43.684 43.668 43.18 44.9187 42.172 45.852C41.164 46.7667 39.792 47.224 38.056 47.224ZM54.2146 27.372C55.708 27.372 56.912 27.876 57.8266 28.884C58.76 29.8733 59.2266 31.1893 59.2266 32.832C59.2266 34.456 58.76 35.7627 57.8266 36.752C56.912 37.7227 55.708 38.208 54.2146 38.208H50.0426C49.968 38.208 49.9306 38.2453 49.9306 38.32V46.72C49.9306 46.9067 49.8373 47 49.6506 47H48.2226C48.036 47 47.9426 46.9067 47.9426 46.72V27.652C47.9426 27.4653 48.036 27.372 48.2226 27.372H54.2146ZM53.9626 36.556C54.952 36.556 55.7453 36.22 56.3426 35.548C56.94 34.876 57.2386 33.98 57.2386 32.86C57.2386 31.7213 56.94 30.816 56.3426 30.144C55.7453 29.4533 54.952 29.108 53.9626 29.108H50.0426C49.968 29.108 49.9306 29.1453 49.9306 29.22V36.444C49.9306 36.5187 49.968 36.556 50.0426 36.556H53.9626ZM74.1395 28.856C74.1395 29.0427 74.0461 29.136 73.8595 29.136H65.4595C65.3848 29.136 65.3475 29.1733 65.3475 29.248V36.192C65.3475 36.2667 65.3848 36.304 65.4595 36.304H71.1155C71.3021 36.304 71.3955 36.3973 71.3955 36.584V37.76C71.3955 37.9467 71.3021 38.04 71.1155 38.04H65.4595C65.3848 38.04 65.3475 38.0773 65.3475 38.152V45.152C65.3475 45.2267 65.3848 45.264 65.4595 45.264H73.8595C74.0461 45.264 74.1395 45.3573 74.1395 45.544V46.72C74.1395 46.9067 74.0461 47 73.8595 47H63.6395C63.4528 47 63.3595 46.9067 63.3595 46.72V27.68C63.3595 27.4933 63.4528 27.4 63.6395 27.4H73.8595C74.0461 27.4 74.1395 27.4933 74.1395 27.68V28.856ZM83.7883 47.224C82.0896 47.224 80.7176 46.72 79.6723 45.712C78.6456 44.704 78.1323 43.3693 78.1323 41.708V32.664C78.1323 31.0027 78.6456 29.6773 79.6723 28.688C80.7176 27.68 82.0896 27.176 83.7883 27.176C85.5056 27.176 86.8776 27.6707 87.9043 28.66C88.9496 29.6493 89.4723 30.9653 89.4723 32.608V32.86C89.4723 33.0467 89.379 33.14 89.1923 33.14L87.7643 33.196C87.5776 33.196 87.4843 33.112 87.4843 32.944V32.552C87.4843 31.4693 87.139 30.592 86.4483 29.92C85.7763 29.248 84.8896 28.912 83.7883 28.912C82.687 28.912 81.8003 29.248 81.1283 29.92C80.4563 30.5733 80.1203 31.4507 80.1203 32.552V41.848C80.1203 42.9493 80.4563 43.836 81.1283 44.508C81.8003 45.1613 82.687 45.488 83.7883 45.488C84.8896 45.488 85.7763 45.152 86.4483 44.48C87.139 43.808 87.4843 42.9307 87.4843 41.848V41.456C87.4843 41.288 87.5776 41.204 87.7643 41.204L89.1923 41.288C89.379 41.288 89.4723 41.3813 89.4723 41.568V41.764C89.4723 43.4067 88.9496 44.732 87.9043 45.74C86.8776 46.7293 85.5056 47.224 83.7883 47.224Z" fill="#3A3A3A"/>
<path d="M111.782 50.704C111.643 50.704 111.539 50.6433 111.47 50.522C110.707 49.2393 110.083 47.6273 109.598 45.686C109.13 43.7447 108.896 41.6993 108.896 39.55C108.896 37.366 109.139 35.286 109.624 33.31C110.109 31.3167 110.742 29.6613 111.522 28.344C111.591 28.2227 111.695 28.162 111.834 28.162H113.082C113.169 28.162 113.229 28.1967 113.264 28.266C113.299 28.318 113.299 28.3873 113.264 28.474C112.605 29.826 112.059 31.4813 111.626 33.44C111.21 35.3813 111.002 37.4093 111.002 39.524C111.002 41.5867 111.21 43.58 111.626 45.504C112.059 47.428 112.605 49.0573 113.264 50.392C113.281 50.4267 113.29 50.47 113.29 50.522C113.29 50.6433 113.221 50.704 113.082 50.704H111.782ZM122.291 48.208C121.026 48.208 119.986 47.87 119.171 47.194C118.357 46.5007 117.863 45.5733 117.689 44.412C117.585 43.5453 117.533 42.54 117.533 41.396C117.533 40.252 117.585 39.264 117.689 38.432C117.845 37.288 118.331 36.3693 119.145 35.676C119.977 34.9827 121.026 34.636 122.291 34.636C123.557 34.636 124.597 34.9827 125.411 35.676C126.243 36.3693 126.737 37.288 126.893 38.432C126.997 39.1253 127.049 40.1133 127.049 41.396C127.049 42.7133 126.997 43.7187 126.893 44.412C126.737 45.5733 126.243 46.5007 125.411 47.194C124.597 47.87 123.557 48.208 122.291 48.208ZM122.291 46.596C123.037 46.596 123.661 46.3707 124.163 45.92C124.683 45.452 124.995 44.8367 125.099 44.074C125.169 43.4327 125.203 42.5487 125.203 41.422C125.203 40.278 125.169 39.394 125.099 38.77C125.013 38.0073 124.709 37.4007 124.189 36.95C123.687 36.482 123.054 36.248 122.291 36.248C121.529 36.248 120.896 36.482 120.393 36.95C119.891 37.4007 119.587 38.0073 119.483 38.77C119.414 39.394 119.379 40.278 119.379 41.422C119.379 42.566 119.414 43.45 119.483 44.074C119.57 44.8367 119.865 45.452 120.367 45.92C120.887 46.3707 121.529 46.596 122.291 46.596ZM136.24 34.662C137.453 34.662 138.406 35.052 139.1 35.832C139.81 36.5947 140.166 37.6433 140.166 38.978V47.74C140.166 47.9133 140.079 48 139.906 48H138.58C138.406 48 138.32 47.9133 138.32 47.74V39.238C138.32 38.3367 138.086 37.6173 137.618 37.08C137.15 36.5427 136.508 36.274 135.694 36.274C134.879 36.274 134.22 36.5513 133.718 37.106C133.232 37.6433 132.99 38.3713 132.99 39.29V47.74C132.99 47.9133 132.903 48 132.73 48H131.404C131.23 48 131.144 47.9133 131.144 47.74V35.104C131.144 34.9307 131.23 34.844 131.404 34.844H132.73C132.903 34.844 132.99 34.9307 132.99 35.104V36.118C132.99 36.1527 132.998 36.1787 133.016 36.196C133.05 36.2133 133.085 36.2047 133.12 36.17C133.796 35.1647 134.836 34.662 136.24 34.662ZM154.846 48.208C153.598 48.208 152.566 47.87 151.752 47.194C150.937 46.5007 150.443 45.5733 150.27 44.412C150.166 43.528 150.114 42.5227 150.114 41.396C150.114 40.512 150.166 39.5153 150.27 38.406C150.426 37.2793 150.92 36.3693 151.752 35.676C152.584 34.9827 153.615 34.636 154.846 34.636C156.076 34.636 157.108 34.9653 157.94 35.624C158.789 36.2827 159.283 37.106 159.422 38.094L159.5 38.64V38.692C159.5 38.7613 159.474 38.822 159.422 38.874C159.387 38.9087 159.335 38.926 159.266 38.926L157.94 39.004C157.784 39.004 157.688 38.926 157.654 38.77C157.654 38.614 157.645 38.51 157.628 38.458C157.541 37.8513 157.238 37.3313 156.718 36.898C156.215 36.4647 155.591 36.248 154.846 36.248C154.083 36.248 153.45 36.482 152.948 36.95C152.462 37.418 152.176 38.0247 152.09 38.77C152.003 39.5153 151.96 40.3993 151.96 41.422C151.96 42.462 152.003 43.3547 152.09 44.1C152.176 44.8627 152.462 45.4693 152.948 45.92C153.45 46.3707 154.083 46.596 154.846 46.596C155.608 46.596 156.241 46.3793 156.744 45.946C157.264 45.5127 157.558 44.984 157.628 44.36L157.654 44.152C157.688 43.9613 157.784 43.8833 157.94 43.918L159.24 44.022C159.396 44.0567 159.474 44.1347 159.474 44.256V44.36C159.474 44.4293 159.456 44.5333 159.422 44.672C159.3 45.6947 158.815 46.544 157.966 47.22C157.134 47.8787 156.094 48.208 154.846 48.208ZM175.15 34.662C176.311 34.662 177.221 35.052 177.88 35.832C178.556 36.5947 178.894 37.652 178.894 39.004V47.74C178.894 47.9133 178.807 48 178.634 48H177.334C177.161 48 177.074 47.9133 177.074 47.74V39.264C177.074 38.3453 176.84 37.6173 176.372 37.08C175.921 36.5427 175.323 36.274 174.578 36.274C173.798 36.274 173.165 36.5427 172.68 37.08C172.212 37.6 171.978 38.3107 171.978 39.212V47.74C171.978 47.9133 171.891 48 171.718 48H170.392C170.219 48 170.132 47.9133 170.132 47.74V39.264C170.132 38.3453 169.898 37.6173 169.43 37.08C168.979 36.5427 168.381 36.274 167.636 36.274C166.856 36.274 166.232 36.5427 165.764 37.08C165.296 37.6 165.062 38.3107 165.062 39.212V47.74C165.062 47.9133 164.975 48 164.802 48H163.476C163.303 48 163.216 47.9133 163.216 47.74V35.104C163.216 34.9307 163.303 34.844 163.476 34.844H164.802C164.975 34.844 165.062 34.9307 165.062 35.104V36.014C165.062 36.0487 165.071 36.0747 165.088 36.092C165.123 36.092 165.157 36.0747 165.192 36.04C165.539 35.572 165.981 35.2253 166.518 35C167.055 34.7747 167.627 34.662 168.234 34.662C168.997 34.662 169.664 34.8353 170.236 35.182C170.808 35.5287 171.241 36.014 171.536 36.638C171.571 36.7247 171.614 36.7247 171.666 36.638C172.013 35.962 172.489 35.468 173.096 35.156C173.72 34.8267 174.405 34.662 175.15 34.662ZM184.83 28.162C184.969 28.162 185.073 28.2227 185.142 28.344C185.905 29.6267 186.52 31.2387 186.988 33.18C187.473 35.1213 187.716 37.1667 187.716 39.316C187.716 41.5173 187.473 43.6147 186.988 45.608C186.503 47.584 185.87 49.222 185.09 50.522C185.021 50.6433 184.917 50.704 184.778 50.704H183.53C183.443 50.704 183.383 50.6693 183.348 50.6C183.313 50.548 183.313 50.4787 183.348 50.392C184.007 49.04 184.544 47.3933 184.96 45.452C185.393 43.4933 185.61 41.4653 185.61 39.368C185.61 37.288 185.393 35.286 184.96 33.362C184.544 31.438 184.007 29.8087 183.348 28.474C183.331 28.4393 183.322 28.396 183.322 28.344C183.322 28.2227 183.391 28.162 183.53 28.162H184.83Z" fill="#3A3A3A"/>
<path d="M39.484 97.372C40.9773 97.372 42.1813 97.876 43.096 98.884C44.0293 99.8733 44.496 101.189 44.496 102.832C44.496 104.456 44.0293 105.763 43.096 106.752C42.1813 107.723 40.9773 108.208 39.484 108.208H35.312C35.2373 108.208 35.2 108.245 35.2 108.32V116.72C35.2 116.907 35.1067 117 34.92 117H33.492C33.3053 117 33.212 116.907 33.212 116.72V97.652C33.212 97.4653 33.3053 97.372 33.492 97.372H39.484ZM39.232 106.556C40.2213 106.556 41.0147 106.22 41.612 105.548C42.2093 104.876 42.508 103.98 42.508 102.86C42.508 101.721 42.2093 100.816 41.612 100.144C41.0147 99.4533 40.2213 99.108 39.232 99.108H35.312C35.2373 99.108 35.2 99.1453 35.2 99.22V106.444C35.2 106.519 35.2373 106.556 35.312 106.556H39.232ZM52.7735 102.608C54.2668 102.608 55.4335 103.037 56.2735 103.896C57.1322 104.755 57.5615 105.893 57.5615 107.312V116.72C57.5615 116.907 57.4682 117 57.2815 117H55.8535C55.6668 117 55.5735 116.907 55.5735 116.72V115.712C55.5735 115.675 55.5548 115.647 55.5175 115.628C55.4988 115.609 55.4708 115.619 55.4335 115.656C55.0228 116.179 54.5002 116.571 53.8655 116.832C53.2308 117.093 52.5215 117.224 51.7375 117.224C50.5615 117.224 49.5535 116.907 48.7135 116.272C47.8922 115.637 47.4815 114.601 47.4815 113.164C47.4815 111.671 47.9575 110.541 48.9095 109.776C49.8802 108.992 51.1962 108.6 52.8575 108.6H55.4615C55.5362 108.6 55.5735 108.563 55.5735 108.488V107.424C55.5735 106.472 55.3308 105.725 54.8455 105.184C54.3788 104.624 53.6788 104.344 52.7455 104.344C52.0175 104.344 51.4108 104.531 50.9255 104.904C50.4402 105.259 50.1508 105.735 50.0575 106.332C50.0388 106.5 49.9362 106.584 49.7495 106.584L48.2095 106.5C48.1162 106.5 48.0415 106.472 47.9855 106.416C47.9482 106.36 47.9388 106.295 47.9575 106.22C48.0882 105.137 48.5922 104.269 49.4695 103.616C50.3655 102.944 51.4668 102.608 52.7735 102.608ZM52.1295 115.488C53.0628 115.488 53.8655 115.236 54.5375 114.732C55.2282 114.209 55.5735 113.491 55.5735 112.576V110.308C55.5735 110.233 55.5362 110.196 55.4615 110.196H52.9975C51.9335 110.196 51.0842 110.448 50.4495 110.952C49.8148 111.437 49.4975 112.137 49.4975 113.052C49.4975 113.873 49.7402 114.489 50.2255 114.9C50.7108 115.292 51.3455 115.488 52.1295 115.488ZM67.4991 102.636C68.8058 102.636 69.8324 103.056 70.5791 103.896C71.3444 104.717 71.7271 105.847 71.7271 107.284V116.72C71.7271 116.907 71.6338 117 71.4471 117H70.0191C69.8324 117 69.7391 116.907 69.7391 116.72V107.564C69.7391 106.593 69.4871 105.819 68.9831 105.24C68.4791 104.661 67.7884 104.372 66.9111 104.372C66.0338 104.372 65.3244 104.671 64.7831 105.268C64.2604 105.847 63.9991 106.631 63.9991 107.62V116.72C63.9991 116.907 63.9058 117 63.7191 117H62.2911C62.1044 117 62.0111 116.907 62.0111 116.72V103.112C62.0111 102.925 62.1044 102.832 62.2911 102.832H63.7191C63.9058 102.832 63.9991 102.925 63.9991 103.112V104.204C63.9991 104.241 64.0084 104.269 64.0271 104.288C64.0644 104.307 64.1018 104.297 64.1391 104.26C64.8671 103.177 65.9871 102.636 67.4991 102.636ZM77.3949 100.256C76.9469 100.256 76.5736 100.107 76.2749 99.808C75.9762 99.5093 75.8269 99.136 75.8269 98.688C75.8269 98.2213 75.9762 97.848 76.2749 97.568C76.5736 97.2693 76.9469 97.12 77.3949 97.12C77.8429 97.12 78.2162 97.2693 78.5149 97.568C78.8136 97.848 78.9629 98.2213 78.9629 98.688C78.9629 99.136 78.8136 99.5093 78.5149 99.808C78.2162 100.107 77.8429 100.256 77.3949 100.256ZM73.7829 122.824C73.5962 122.824 73.5029 122.731 73.5029 122.544V121.368C73.5029 121.181 73.5962 121.088 73.7829 121.088C74.6602 121.069 75.3136 120.817 75.7429 120.332C76.1909 119.847 76.4149 119.147 76.4149 118.232L76.3869 103.112C76.3869 102.925 76.4802 102.832 76.6669 102.832H78.0949C78.2816 102.832 78.3749 102.925 78.3749 103.112V118.232C78.3749 119.8 78.0296 120.957 77.3389 121.704C76.6482 122.451 75.4629 122.824 73.7829 122.824ZM87.9693 102.608C89.4626 102.608 90.6293 103.037 91.4693 103.896C92.3279 104.755 92.7573 105.893 92.7573 107.312V116.72C92.7573 116.907 92.6639 117 92.4773 117H91.0493C90.8626 117 90.7693 116.907 90.7693 116.72V115.712C90.7693 115.675 90.7506 115.647 90.7133 115.628C90.6946 115.609 90.6666 115.619 90.6293 115.656C90.2186 116.179 89.6959 116.571 89.0613 116.832C88.4266 117.093 87.7173 117.224 86.9333 117.224C85.7573 117.224 84.7493 116.907 83.9093 116.272C83.0879 115.637 82.6773 114.601 82.6773 113.164C82.6773 111.671 83.1533 110.541 84.1053 109.776C85.0759 108.992 86.3919 108.6 88.0533 108.6H90.6573C90.7319 108.6 90.7693 108.563 90.7693 108.488V107.424C90.7693 106.472 90.5266 105.725 90.0413 105.184C89.5746 104.624 88.8746 104.344 87.9413 104.344C87.2133 104.344 86.6066 104.531 86.1213 104.904C85.6359 105.259 85.3466 105.735 85.2533 106.332C85.2346 106.5 85.1319 106.584 84.9453 106.584L83.4053 106.5C83.3119 106.5 83.2373 106.472 83.1813 106.416C83.1439 106.36 83.1346 106.295 83.1533 106.22C83.2839 105.137 83.7879 104.269 84.6653 103.616C85.5613 102.944 86.6626 102.608 87.9693 102.608ZM87.3253 115.488C88.2586 115.488 89.0613 115.236 89.7333 114.732C90.4239 114.209 90.7693 113.491 90.7693 112.576V110.308C90.7693 110.233 90.7319 110.196 90.6573 110.196H88.1933C87.1293 110.196 86.2799 110.448 85.6453 110.952C85.0106 111.437 84.6933 112.137 84.6933 113.052C84.6933 113.873 84.9359 114.489 85.4213 114.9C85.9066 115.292 86.5413 115.488 87.3253 115.488ZM102.695 102.636C104.002 102.636 105.028 103.056 105.775 103.896C106.54 104.717 106.923 105.847 106.923 107.284V116.72C106.923 116.907 106.83 117 106.643 117H105.215C105.028 117 104.935 116.907 104.935 116.72V107.564C104.935 106.593 104.683 105.819 104.179 105.24C103.675 104.661 102.984 104.372 102.107 104.372C101.23 104.372 100.52 104.671 99.9789 105.268C99.4562 105.847 99.1949 106.631 99.1949 107.62V116.72C99.1949 116.907 99.1015 117 98.9149 117H97.4869C97.3002 117 97.2069 116.907 97.2069 116.72V103.112C97.2069 102.925 97.3002 102.832 97.4869 102.832H98.9149C99.1015 102.832 99.1949 102.925 99.1949 103.112V104.204C99.1949 104.241 99.2042 104.269 99.2229 104.288C99.2602 104.307 99.2975 104.297 99.3349 104.26C100.063 103.177 101.183 102.636 102.695 102.636ZM119.171 103.112C119.171 102.925 119.264 102.832 119.451 102.832H120.879C121.065 102.832 121.159 102.925 121.159 103.112V116.608C121.159 120.827 118.853 122.833 114.243 122.628C114.056 122.609 113.963 122.507 113.963 122.32L113.991 121.06C113.991 120.967 114.019 120.892 114.075 120.836C114.131 120.799 114.196 120.789 114.271 120.808C116.025 120.864 117.276 120.537 118.023 119.828C118.788 119.137 119.171 118.027 119.171 116.496V115.572C119.171 115.535 119.152 115.507 119.115 115.488C119.096 115.469 119.068 115.479 119.031 115.516C118.303 116.561 117.22 117.084 115.783 117.084C114.588 117.084 113.589 116.729 112.787 116.02C111.984 115.292 111.489 114.312 111.303 113.08C111.191 112.259 111.135 111.204 111.135 109.916C111.135 108.516 111.2 107.415 111.331 106.612C111.48 105.399 111.947 104.428 112.731 103.7C113.533 102.972 114.532 102.608 115.727 102.608C117.183 102.608 118.284 103.121 119.031 104.148C119.068 104.185 119.096 104.204 119.115 104.204C119.152 104.185 119.171 104.157 119.171 104.12V103.112ZM119.087 112.688C119.143 111.96 119.171 111.027 119.171 109.888C119.171 108.768 119.143 107.816 119.087 107.032C119.012 106.248 118.713 105.604 118.191 105.1C117.687 104.596 117.033 104.344 116.231 104.344C115.428 104.344 114.756 104.596 114.215 105.1C113.692 105.604 113.375 106.248 113.263 107.032C113.188 107.704 113.151 108.656 113.151 109.888C113.151 110.821 113.188 111.755 113.263 112.688C113.356 113.472 113.673 114.116 114.215 114.62C114.756 115.124 115.428 115.376 116.231 115.376C117.033 115.376 117.687 115.124 118.191 114.62C118.713 114.116 119.012 113.472 119.087 112.688Z" fill="#3A3A3A"/>
<path d="M33.604 187C33.4173 187 33.324 186.907 33.324 186.72V167.68C33.324 167.493 33.4173 167.4 33.604 167.4H35.032C35.2187 167.4 35.312 167.493 35.312 167.68V185.152C35.312 185.227 35.3493 185.264 35.424 185.264H43.572C43.7587 185.264 43.852 185.357 43.852 185.544V186.72C43.852 186.907 43.7587 187 43.572 187H33.604ZM52.0958 185.488C52.8051 185.488 53.4118 185.311 53.9158 184.956C54.4385 184.583 54.8118 184.088 55.0358 183.472C55.0918 183.304 55.2038 183.239 55.3718 183.276L56.6598 183.528C56.7531 183.547 56.8091 183.593 56.8278 183.668C56.8651 183.724 56.8745 183.789 56.8558 183.864C56.5385 184.909 55.9598 185.731 55.1198 186.328C54.2798 186.925 53.2625 187.224 52.0678 187.224C50.7051 187.224 49.5945 186.869 48.7358 186.16C47.8771 185.432 47.3451 184.452 47.1398 183.22C47.0651 182.753 47.0185 182.203 46.9998 181.568C46.9811 180.933 46.9718 180.411 46.9718 180C46.9718 179.571 46.9718 179.272 46.9718 179.104C46.9718 178.152 47.0091 177.377 47.0838 176.78C47.2331 175.529 47.7465 174.521 48.6238 173.756C49.5198 172.991 50.6398 172.608 51.9838 172.608C53.4211 172.608 54.5878 173.019 55.4838 173.84C56.3798 174.661 56.8838 175.744 56.9958 177.088C57.0518 177.704 57.0798 178.833 57.0798 180.476C57.0798 180.663 56.9865 180.756 56.7998 180.756H49.0718C48.9971 180.756 48.9598 180.793 48.9598 180.868C48.9598 181.447 48.9785 182.091 49.0158 182.8C49.1091 183.603 49.4265 184.256 49.9678 184.76C50.5278 185.245 51.2371 185.488 52.0958 185.488ZM52.0118 174.344C51.1718 174.344 50.4811 174.596 49.9398 175.1C49.4171 175.585 49.1091 176.229 49.0158 177.032C48.9785 177.816 48.9598 178.469 48.9598 178.992C48.9598 179.067 48.9971 179.104 49.0718 179.104H54.9798C55.0545 179.104 55.0918 179.067 55.0918 178.992C55.0918 178.451 55.0545 177.807 54.9798 177.06C54.8865 176.257 54.5691 175.604 54.0278 175.1C53.5051 174.596 52.8331 174.344 52.0118 174.344ZM71.1282 176.724C71.3148 177.676 71.4082 178.787 71.4082 180.056C71.4082 181.195 71.2868 182.277 71.0442 183.304C70.7082 184.667 70.1855 185.665 69.4762 186.3C68.7855 186.916 67.8522 187.224 66.6762 187.224C65.2015 187.224 64.1282 186.692 63.4562 185.628C63.4375 185.572 63.4095 185.553 63.3722 185.572C63.3348 185.572 63.3162 185.6 63.3162 185.656V186.72C63.3162 186.907 63.2228 187 63.0362 187H61.6082C61.4215 187 61.3282 186.907 61.3282 186.72V167.68C61.3282 167.493 61.4215 167.4 61.6082 167.4H63.0362C63.2228 167.4 63.3162 167.493 63.3162 167.68V174.176C63.3162 174.232 63.3348 174.269 63.3722 174.288C63.4095 174.288 63.4375 174.26 63.4562 174.204C63.7362 173.681 64.1188 173.289 64.6042 173.028C65.1082 172.767 65.7522 172.636 66.5362 172.636C67.7868 172.636 68.7855 172.972 69.5322 173.644C70.2975 174.297 70.8295 175.324 71.1282 176.724ZM68.9722 183.416C69.2522 182.576 69.3922 181.409 69.3922 179.916C69.3922 178.404 69.2148 177.181 68.8602 176.248C68.3375 174.979 67.4602 174.344 66.2282 174.344C65.5935 174.344 65.0895 174.512 64.7162 174.848C64.3428 175.184 64.0442 175.669 63.8202 176.304C63.5028 177.163 63.3442 178.367 63.3442 179.916C63.3442 181.428 63.4842 182.604 63.7642 183.444C63.9882 184.116 64.2962 184.629 64.6882 184.984C65.0988 185.339 65.6308 185.516 66.2842 185.516C66.9748 185.516 67.5348 185.339 67.9642 184.984C68.3935 184.629 68.7295 184.107 68.9722 183.416ZM80.2387 172.608C81.732 172.608 82.8987 173.037 83.7387 173.896C84.5973 174.755 85.0267 175.893 85.0267 177.312V186.72C85.0267 186.907 84.9333 187 84.7467 187H83.3187C83.132 187 83.0387 186.907 83.0387 186.72V185.712C83.0387 185.675 83.02 185.647 82.9827 185.628C82.964 185.609 82.936 185.619 82.8987 185.656C82.488 186.179 81.9653 186.571 81.3307 186.832C80.696 187.093 79.9867 187.224 79.2027 187.224C78.0267 187.224 77.0187 186.907 76.1787 186.272C75.3573 185.637 74.9467 184.601 74.9467 183.164C74.9467 181.671 75.4227 180.541 76.3747 179.776C77.3453 178.992 78.6613 178.6 80.3227 178.6H82.9267C83.0013 178.6 83.0387 178.563 83.0387 178.488V177.424C83.0387 176.472 82.796 175.725 82.3107 175.184C81.844 174.624 81.144 174.344 80.2107 174.344C79.4827 174.344 78.876 174.531 78.3907 174.904C77.9053 175.259 77.616 175.735 77.5227 176.332C77.504 176.5 77.4013 176.584 77.2147 176.584L75.6747 176.5C75.5813 176.5 75.5067 176.472 75.4507 176.416C75.4133 176.36 75.404 176.295 75.4227 176.22C75.5533 175.137 76.0573 174.269 76.9347 173.616C77.8307 172.944 78.932 172.608 80.2387 172.608ZM79.5947 185.488C80.528 185.488 81.3307 185.236 82.0027 184.732C82.6933 184.209 83.0387 183.491 83.0387 182.576V180.308C83.0387 180.233 83.0013 180.196 82.9267 180.196H80.4627C79.3987 180.196 78.5493 180.448 77.9147 180.952C77.28 181.437 76.9627 182.137 76.9627 183.052C76.9627 183.873 77.2053 184.489 77.6907 184.9C78.176 185.292 78.8107 185.488 79.5947 185.488ZM94.7403 172.692C95.3003 172.692 95.7763 172.804 96.1683 173.028C96.2989 173.084 96.3456 173.196 96.3083 173.364L95.9723 174.82C95.9536 175.007 95.8416 175.063 95.6363 174.988C95.3376 174.857 95.0109 174.792 94.6563 174.792L94.3203 174.82C93.4989 174.839 92.8176 175.193 92.2763 175.884C91.7349 176.575 91.4643 177.415 91.4643 178.404V186.72C91.4643 186.907 91.3709 187 91.1843 187H89.7563C89.5696 187 89.4763 186.907 89.4763 186.72V173.112C89.4763 172.925 89.5696 172.832 89.7563 172.832H91.1843C91.3709 172.832 91.4643 172.925 91.4643 173.112V174.932C91.4643 174.988 91.4736 175.016 91.4923 175.016C91.5296 175.016 91.5576 174.997 91.5763 174.96C91.8936 174.251 92.3136 173.7 92.8363 173.308C93.3776 172.897 94.0123 172.692 94.7403 172.692Z" fill="#3A3A3A"/>
<path d="M39.484 237.372C40.9773 237.372 42.1813 237.876 43.096 238.884C44.0293 239.873 44.496 241.189 44.496 242.832C44.496 244.456 44.0293 245.763 43.096 246.752C42.1813 247.723 40.9773 248.208 39.484 248.208H35.312C35.2373 248.208 35.2 248.245 35.2 248.32V256.72C35.2 256.907 35.1067 257 34.92 257H33.492C33.3053 257 33.212 256.907 33.212 256.72V237.652C33.212 237.465 33.3053 237.372 33.492 237.372H39.484ZM39.232 246.556C40.2213 246.556 41.0147 246.22 41.612 245.548C42.2093 244.876 42.508 243.98 42.508 242.86C42.508 241.721 42.2093 240.816 41.612 240.144C41.0147 239.453 40.2213 239.108 39.232 239.108H35.312C35.2373 239.108 35.2 239.145 35.2 239.22V246.444C35.2 246.519 35.2373 246.556 35.312 246.556H39.232ZM52.7735 242.608C54.2668 242.608 55.4335 243.037 56.2735 243.896C57.1322 244.755 57.5615 245.893 57.5615 247.312V256.72C57.5615 256.907 57.4682 257 57.2815 257H55.8535C55.6668 257 55.5735 256.907 55.5735 256.72V255.712C55.5735 255.675 55.5548 255.647 55.5175 255.628C55.4988 255.609 55.4708 255.619 55.4335 255.656C55.0228 256.179 54.5002 256.571 53.8655 256.832C53.2308 257.093 52.5215 257.224 51.7375 257.224C50.5615 257.224 49.5535 256.907 48.7135 256.272C47.8922 255.637 47.4815 254.601 47.4815 253.164C47.4815 251.671 47.9575 250.541 48.9095 249.776C49.8802 248.992 51.1962 248.6 52.8575 248.6H55.4615C55.5362 248.6 55.5735 248.563 55.5735 248.488V247.424C55.5735 246.472 55.3308 245.725 54.8455 245.184C54.3788 244.624 53.6788 244.344 52.7455 244.344C52.0175 244.344 51.4108 244.531 50.9255 244.904C50.4402 245.259 50.1508 245.735 50.0575 246.332C50.0388 246.5 49.9362 246.584 49.7495 246.584L48.2095 246.5C48.1162 246.5 48.0415 246.472 47.9855 246.416C47.9482 246.36 47.9388 246.295 47.9575 246.22C48.0882 245.137 48.5922 244.269 49.4695 243.616C50.3655 242.944 51.4668 242.608 52.7735 242.608ZM52.1295 255.488C53.0628 255.488 53.8655 255.236 54.5375 254.732C55.2282 254.209 55.5735 253.491 55.5735 252.576V250.308C55.5735 250.233 55.5362 250.196 55.4615 250.196H52.9975C51.9335 250.196 51.0842 250.448 50.4495 250.952C49.8148 251.437 49.4975 252.137 49.4975 253.052C49.4975 253.873 49.7402 254.489 50.2255 254.9C50.7108 255.292 51.3455 255.488 52.1295 255.488ZM67.4991 242.636C68.8058 242.636 69.8324 243.056 70.5791 243.896C71.3444 244.717 71.7271 245.847 71.7271 247.284V256.72C71.7271 256.907 71.6338 257 71.4471 257H70.0191C69.8324 257 69.7391 256.907 69.7391 256.72V247.564C69.7391 246.593 69.4871 245.819 68.9831 245.24C68.4791 244.661 67.7884 244.372 66.9111 244.372C66.0338 244.372 65.3244 244.671 64.7831 245.268C64.2604 245.847 63.9991 246.631 63.9991 247.62V256.72C63.9991 256.907 63.9058 257 63.7191 257H62.2911C62.1044 257 62.0111 256.907 62.0111 256.72V243.112C62.0111 242.925 62.1044 242.832 62.2911 242.832H63.7191C63.9058 242.832 63.9991 242.925 63.9991 243.112V244.204C63.9991 244.241 64.0084 244.269 64.0271 244.288C64.0644 244.307 64.1018 244.297 64.1391 244.26C64.8671 243.177 65.9871 242.636 67.4991 242.636ZM77.3949 240.256C76.9469 240.256 76.5736 240.107 76.2749 239.808C75.9762 239.509 75.8269 239.136 75.8269 238.688C75.8269 238.221 75.9762 237.848 76.2749 237.568C76.5736 237.269 76.9469 237.12 77.3949 237.12C77.8429 237.12 78.2162 237.269 78.5149 237.568C78.8136 237.848 78.9629 238.221 78.9629 238.688C78.9629 239.136 78.8136 239.509 78.5149 239.808C78.2162 240.107 77.8429 240.256 77.3949 240.256ZM73.7829 262.824C73.5962 262.824 73.5029 262.731 73.5029 262.544V261.368C73.5029 261.181 73.5962 261.088 73.7829 261.088C74.6602 261.069 75.3136 260.817 75.7429 260.332C76.1909 259.847 76.4149 259.147 76.4149 258.232L76.3869 243.112C76.3869 242.925 76.4802 242.832 76.6669 242.832H78.0949C78.2816 242.832 78.3749 242.925 78.3749 243.112V258.232C78.3749 259.8 78.0296 260.957 77.3389 261.704C76.6482 262.451 75.4629 262.824 73.7829 262.824ZM87.9693 242.608C89.4626 242.608 90.6293 243.037 91.4693 243.896C92.3279 244.755 92.7573 245.893 92.7573 247.312V256.72C92.7573 256.907 92.6639 257 92.4773 257H91.0493C90.8626 257 90.7693 256.907 90.7693 256.72V255.712C90.7693 255.675 90.7506 255.647 90.7133 255.628C90.6946 255.609 90.6666 255.619 90.6293 255.656C90.2186 256.179 89.6959 256.571 89.0613 256.832C88.4266 257.093 87.7173 257.224 86.9333 257.224C85.7573 257.224 84.7493 256.907 83.9093 256.272C83.0879 255.637 82.6773 254.601 82.6773 253.164C82.6773 251.671 83.1533 250.541 84.1053 249.776C85.0759 248.992 86.3919 248.6 88.0533 248.6H90.6573C90.7319 248.6 90.7693 248.563 90.7693 248.488V247.424C90.7693 246.472 90.5266 245.725 90.0413 245.184C89.5746 244.624 88.8746 244.344 87.9413 244.344C87.2133 244.344 86.6066 244.531 86.1213 244.904C85.6359 245.259 85.3466 245.735 85.2533 246.332C85.2346 246.5 85.1319 246.584 84.9453 246.584L83.4053 246.5C83.3119 246.5 83.2373 246.472 83.1813 246.416C83.1439 246.36 83.1346 246.295 83.1533 246.22C83.2839 245.137 83.7879 244.269 84.6653 243.616C85.5613 242.944 86.6626 242.608 87.9693 242.608ZM87.3253 255.488C88.2586 255.488 89.0613 255.236 89.7333 254.732C90.4239 254.209 90.7693 253.491 90.7693 252.576V250.308C90.7693 250.233 90.7319 250.196 90.6573 250.196H88.1933C87.1293 250.196 86.2799 250.448 85.6453 250.952C85.0106 251.437 84.6933 252.137 84.6933 253.052C84.6933 253.873 84.9359 254.489 85.4213 254.9C85.9066 255.292 86.5413 255.488 87.3253 255.488ZM102.695 242.636C104.002 242.636 105.028 243.056 105.775 243.896C106.54 244.717 106.923 245.847 106.923 247.284V256.72C106.923 256.907 106.83 257 106.643 257H105.215C105.028 257 104.935 256.907 104.935 256.72V247.564C104.935 246.593 104.683 245.819 104.179 245.24C103.675 244.661 102.984 244.372 102.107 244.372C101.23 244.372 100.52 244.671 99.9789 245.268C99.4562 245.847 99.1949 246.631 99.1949 247.62V256.72C99.1949 256.907 99.1015 257 98.9149 257H97.4869C97.3002 257 97.2069 256.907 97.2069 256.72V243.112C97.2069 242.925 97.3002 242.832 97.4869 242.832H98.9149C99.1015 242.832 99.1949 242.925 99.1949 243.112V244.204C99.1949 244.241 99.2042 244.269 99.2229 244.288C99.2602 244.307 99.2975 244.297 99.3349 244.26C100.063 243.177 101.183 242.636 102.695 242.636ZM119.171 243.112C119.171 242.925 119.264 242.832 119.451 242.832H120.879C121.065 242.832 121.159 242.925 121.159 243.112V256.608C121.159 260.827 118.853 262.833 114.243 262.628C114.056 262.609 113.963 262.507 113.963 262.32L113.991 261.06C113.991 260.967 114.019 260.892 114.075 260.836C114.131 260.799 114.196 260.789 114.271 260.808C116.025 260.864 117.276 260.537 118.023 259.828C118.788 259.137 119.171 258.027 119.171 256.496V255.572C119.171 255.535 119.152 255.507 119.115 255.488C119.096 255.469 119.068 255.479 119.031 255.516C118.303 256.561 117.22 257.084 115.783 257.084C114.588 257.084 113.589 256.729 112.787 256.02C111.984 255.292 111.489 254.312 111.303 253.08C111.191 252.259 111.135 251.204 111.135 249.916C111.135 248.516 111.2 247.415 111.331 246.612C111.48 245.399 111.947 244.428 112.731 243.7C113.533 242.972 114.532 242.608 115.727 242.608C117.183 242.608 118.284 243.121 119.031 244.148C119.068 244.185 119.096 244.204 119.115 244.204C119.152 244.185 119.171 244.157 119.171 244.12V243.112ZM119.087 252.688C119.143 251.96 119.171 251.027 119.171 249.888C119.171 248.768 119.143 247.816 119.087 247.032C119.012 246.248 118.713 245.604 118.191 245.1C117.687 244.596 117.033 244.344 116.231 244.344C115.428 244.344 114.756 244.596 114.215 245.1C113.692 245.604 113.375 246.248 113.263 247.032C113.188 247.704 113.151 248.656 113.151 249.888C113.151 250.821 113.188 251.755 113.263 252.688C113.356 253.472 113.673 254.116 114.215 254.62C114.756 255.124 115.428 255.376 116.231 255.376C117.033 255.376 117.687 255.124 118.191 254.62C118.713 254.116 119.012 253.472 119.087 252.688ZM132.746 257C132.559 257 132.466 256.907 132.466 256.72V237.68C132.466 237.493 132.559 237.4 132.746 237.4H134.174C134.361 237.4 134.454 237.493 134.454 237.68V255.152C134.454 255.227 134.491 255.264 134.566 255.264H142.714C142.901 255.264 142.994 255.357 142.994 255.544V256.72C142.994 256.907 142.901 257 142.714 257H132.746ZM151.238 255.488C151.947 255.488 152.554 255.311 153.058 254.956C153.58 254.583 153.954 254.088 154.178 253.472C154.234 253.304 154.346 253.239 154.514 253.276L155.802 253.528C155.895 253.547 155.951 253.593 155.97 253.668C156.007 253.724 156.016 253.789 155.998 253.864C155.68 254.909 155.102 255.731 154.262 256.328C153.422 256.925 152.404 257.224 151.21 257.224C149.847 257.224 148.736 256.869 147.878 256.16C147.019 255.432 146.487 254.452 146.282 253.22C146.207 252.753 146.16 252.203 146.142 251.568C146.123 250.933 146.114 250.411 146.114 250C146.114 249.571 146.114 249.272 146.114 249.104C146.114 248.152 146.151 247.377 146.226 246.78C146.375 245.529 146.888 244.521 147.766 243.756C148.662 242.991 149.782 242.608 151.126 242.608C152.563 242.608 153.73 243.019 154.626 243.84C155.522 244.661 156.026 245.744 156.138 247.088C156.194 247.704 156.222 248.833 156.222 250.476C156.222 250.663 156.128 250.756 155.942 250.756H148.214C148.139 250.756 148.102 250.793 148.102 250.868C148.102 251.447 148.12 252.091 148.158 252.8C148.251 253.603 148.568 254.256 149.11 254.76C149.67 255.245 150.379 255.488 151.238 255.488ZM151.154 244.344C150.314 244.344 149.623 244.596 149.082 245.1C148.559 245.585 148.251 246.229 148.158 247.032C148.12 247.816 148.102 248.469 148.102 248.992C148.102 249.067 148.139 249.104 148.214 249.104H154.122C154.196 249.104 154.234 249.067 154.234 248.992C154.234 248.451 154.196 247.807 154.122 247.06C154.028 246.257 153.711 245.604 153.17 245.1C152.647 244.596 151.975 244.344 151.154 244.344ZM165.93 242.636C167.237 242.636 168.263 243.056 169.01 243.896C169.775 244.717 170.158 245.847 170.158 247.284V256.72C170.158 256.907 170.065 257 169.878 257H168.45C168.263 257 168.17 256.907 168.17 256.72V247.564C168.17 246.593 167.918 245.819 167.414 245.24C166.91 244.661 166.219 244.372 165.342 244.372C164.465 244.372 163.755 244.671 163.214 245.268C162.691 245.847 162.43 246.631 162.43 247.62V256.72C162.43 256.907 162.337 257 162.15 257H160.722C160.535 257 160.442 256.907 160.442 256.72V243.112C160.442 242.925 160.535 242.832 160.722 242.832H162.15C162.337 242.832 162.43 242.925 162.43 243.112V244.204C162.43 244.241 162.439 244.269 162.458 244.288C162.495 244.307 162.533 244.297 162.57 244.26C163.298 243.177 164.418 242.636 165.93 242.636ZM182.406 243.112C182.406 242.925 182.499 242.832 182.686 242.832H184.114C184.301 242.832 184.394 242.925 184.394 243.112V256.608C184.394 260.827 182.089 262.833 177.478 262.628C177.291 262.609 177.198 262.507 177.198 262.32L177.226 261.06C177.226 260.967 177.254 260.892 177.31 260.836C177.366 260.799 177.431 260.789 177.506 260.808C179.261 260.864 180.511 260.537 181.258 259.828C182.023 259.137 182.406 258.027 182.406 256.496V255.572C182.406 255.535 182.387 255.507 182.35 255.488C182.331 255.469 182.303 255.479 182.266 255.516C181.538 256.561 180.455 257.084 179.018 257.084C177.823 257.084 176.825 256.729 176.022 256.02C175.219 255.292 174.725 254.312 174.538 253.08C174.426 252.259 174.37 251.204 174.37 249.916C174.37 248.516 174.435 247.415 174.566 246.612C174.715 245.399 175.182 244.428 175.966 243.7C176.769 242.972 177.767 242.608 178.962 242.608C180.418 242.608 181.519 243.121 182.266 244.148C182.303 244.185 182.331 244.204 182.35 244.204C182.387 244.185 182.406 244.157 182.406 244.12V243.112ZM182.322 252.688C182.378 251.96 182.406 251.027 182.406 249.888C182.406 248.768 182.378 247.816 182.322 247.032C182.247 246.248 181.949 245.604 181.426 245.1C180.922 244.596 180.269 244.344 179.466 244.344C178.663 244.344 177.991 244.596 177.45 245.1C176.927 245.604 176.61 246.248 176.498 247.032C176.423 247.704 176.386 248.656 176.386 249.888C176.386 250.821 176.423 251.755 176.498 252.688C176.591 253.472 176.909 254.116 177.45 254.62C177.991 255.124 178.663 255.376 179.466 255.376C180.269 255.376 180.922 255.124 181.426 254.62C181.949 254.116 182.247 253.472 182.322 252.688ZM193.428 242.608C194.921 242.608 196.088 243.037 196.928 243.896C197.786 244.755 198.216 245.893 198.216 247.312V256.72C198.216 256.907 198.122 257 197.936 257H196.508C196.321 257 196.228 256.907 196.228 256.72V255.712C196.228 255.675 196.209 255.647 196.172 255.628C196.153 255.609 196.125 255.619 196.088 255.656C195.677 256.179 195.154 256.571 194.52 256.832C193.885 257.093 193.176 257.224 192.392 257.224C191.216 257.224 190.208 256.907 189.368 256.272C188.546 255.637 188.136 254.601 188.136 253.164C188.136 251.671 188.612 250.541 189.564 249.776C190.534 248.992 191.85 248.6 193.512 248.6H196.116C196.19 248.6 196.228 248.563 196.228 248.488V247.424C196.228 246.472 195.985 245.725 195.5 245.184C195.033 244.624 194.333 244.344 193.4 244.344C192.672 244.344 192.065 244.531 191.58 244.904C191.094 245.259 190.805 245.735 190.712 246.332C190.693 246.5 190.59 246.584 190.404 246.584L188.864 246.5C188.77 246.5 188.696 246.472 188.64 246.416C188.602 246.36 188.593 246.295 188.612 246.22C188.742 245.137 189.246 244.269 190.124 243.616C191.02 242.944 192.121 242.608 193.428 242.608ZM192.784 255.488C193.717 255.488 194.52 255.236 195.192 254.732C195.882 254.209 196.228 253.491 196.228 252.576V250.308C196.228 250.233 196.19 250.196 196.116 250.196H193.652C192.588 250.196 191.738 250.448 191.104 250.952C190.469 251.437 190.152 252.137 190.152 253.052C190.152 253.873 190.394 254.489 190.88 254.9C191.365 255.292 192 255.488 192.784 255.488ZM208.153 242.636C209.46 242.636 210.486 243.056 211.233 243.896C211.998 244.717 212.381 245.847 212.381 247.284V256.72C212.381 256.907 212.288 257 212.101 257H210.673C210.486 257 210.393 256.907 210.393 256.72V247.564C210.393 246.593 210.141 245.819 209.637 245.24C209.133 244.661 208.442 244.372 207.565 244.372C206.688 244.372 205.978 244.671 205.437 245.268C204.914 245.847 204.653 246.631 204.653 247.62V256.72C204.653 256.907 204.56 257 204.373 257H202.945C202.758 257 202.665 256.907 202.665 256.72V243.112C202.665 242.925 202.758 242.832 202.945 242.832H204.373C204.56 242.832 204.653 242.925 204.653 243.112V244.204C204.653 244.241 204.662 244.269 204.681 244.288C204.718 244.307 204.756 244.297 204.793 244.26C205.521 243.177 206.641 242.636 208.153 242.636Z" fill="#3A3A3A"/>
<path d="M384.056 47.224C382.301 47.224 380.901 46.7667 379.856 45.852C378.829 44.9187 378.316 43.6773 378.316 42.128V41.372C378.316 41.1853 378.409 41.092 378.596 41.092H379.968C380.155 41.092 380.248 41.1853 380.248 41.372V42.016C380.248 43.0613 380.603 43.9013 381.312 44.536C382.021 45.1707 382.964 45.488 384.14 45.488C385.241 45.488 386.109 45.1893 386.744 44.592C387.379 43.9947 387.696 43.2107 387.696 42.24C387.696 41.6053 387.547 41.0547 387.248 40.588C386.949 40.1213 386.511 39.692 385.932 39.3C385.353 38.908 384.523 38.4133 383.44 37.816C382.283 37.2 381.368 36.6587 380.696 36.192C380.043 35.7253 379.511 35.156 379.1 34.484C378.689 33.812 378.484 32.9907 378.484 32.02C378.484 30.508 378.969 29.3227 379.94 28.464C380.911 27.6053 382.208 27.176 383.832 27.176C385.568 27.176 386.949 27.652 387.976 28.604C389.003 29.556 389.516 30.816 389.516 32.384V33.028C389.516 33.2147 389.423 33.308 389.236 33.308H387.836C387.649 33.308 387.556 33.2147 387.556 33.028V32.412C387.556 31.3667 387.22 30.5267 386.548 29.892C385.876 29.2387 384.952 28.912 383.776 28.912C382.731 28.912 381.909 29.1827 381.312 29.724C380.733 30.2653 380.444 31.0307 380.444 32.02C380.444 32.6547 380.584 33.1867 380.864 33.616C381.144 34.0453 381.545 34.4373 382.068 34.792C382.609 35.1467 383.431 35.6227 384.532 36.22C385.801 36.9293 386.772 37.536 387.444 38.04C388.135 38.5253 388.676 39.0947 389.068 39.748C389.479 40.3827 389.684 41.1667 389.684 42.1C389.684 43.668 389.18 44.9187 388.172 45.852C387.164 46.7667 385.792 47.224 384.056 47.224Z" fill="#3A3A3A"/>
<path d="M475.936 27.596C476.029 27.4653 476.141 27.4 476.272 27.4H477.728C477.915 27.4 478.008 27.4933 478.008 27.68V46.72C478.008 46.9067 477.915 47 477.728 47H476.3C476.113 47 476.02 46.9067 476.02 46.72V31.488C476.02 31.432 476.001 31.3947 475.964 31.376C475.927 31.3573 475.899 31.376 475.88 31.432L472.156 37.9C472.063 38.0307 471.951 38.096 471.82 38.096H471.512C471.381 38.096 471.269 38.0307 471.176 37.9L467.424 31.46C467.405 31.404 467.377 31.3853 467.34 31.404C467.303 31.4227 467.284 31.46 467.284 31.516V46.72C467.284 46.9067 467.191 47 467.004 47H465.576C465.389 47 465.296 46.9067 465.296 46.72V27.68C465.296 27.4933 465.389 27.4 465.576 27.4H467.032C467.163 27.4 467.275 27.4653 467.368 27.596L471.596 34.792C471.615 34.8107 471.643 34.82 471.68 34.82C471.717 34.82 471.745 34.8107 471.764 34.792L475.936 27.596Z" fill="#3A3A3A"/>
<path d="M559.604 47C559.417 47 559.324 46.9067 559.324 46.72V27.68C559.324 27.4933 559.417 27.4 559.604 27.4H561.032C561.219 27.4 561.312 27.4933 561.312 27.68V45.152C561.312 45.2267 561.349 45.264 561.424 45.264H569.572C569.759 45.264 569.852 45.3573 569.852 45.544V46.72C569.852 46.9067 569.759 47 569.572 47H559.604Z" fill="#3A3A3A"/>
<path d="M641.288 47C641.195 47 641.129 46.972 641.092 46.916C641.055 46.8413 641.055 46.7573 641.092 46.664L646.02 37.284C646.057 37.228 646.057 37.172 646.02 37.116L641.092 27.736C641.073 27.6987 641.064 27.652 641.064 27.596C641.064 27.4653 641.139 27.4 641.288 27.4H642.828C642.996 27.4 643.108 27.4653 643.164 27.596L647.084 35.352C647.103 35.3893 647.131 35.408 647.168 35.408C647.205 35.408 647.233 35.3893 647.252 35.352L651.172 27.596C651.228 27.4653 651.34 27.4 651.508 27.4H653.048C653.141 27.4 653.207 27.4373 653.244 27.512C653.281 27.568 653.281 27.6427 653.244 27.736L648.288 37.144C648.269 37.2 648.269 37.256 648.288 37.312L653.244 46.664C653.263 46.7013 653.272 46.748 653.272 46.804C653.272 46.9347 653.197 47 653.048 47H651.508C651.34 47 651.228 46.9347 651.172 46.804L647.252 39.076C647.233 39.0387 647.205 39.02 647.168 39.02C647.131 39.02 647.103 39.0387 647.084 39.076L643.164 46.804C643.108 46.9347 642.996 47 642.828 47H641.288ZM658.305 47C658.118 47 658.025 46.9067 658.025 46.72V27.68C658.025 27.4933 658.118 27.4 658.305 27.4H659.733C659.919 27.4 660.013 27.4933 660.013 27.68V45.152C660.013 45.2267 660.05 45.264 660.125 45.264H668.273C668.459 45.264 668.553 45.3573 668.553 45.544V46.72C668.553 46.9067 668.459 47 668.273 47H658.305Z" fill="#3A3A3A"/>
<path d="M381.34 108.152C381.601 108.88 381.732 109.832 381.732 111.008C381.732 112.016 381.639 112.828 381.452 113.444C381.172 114.657 380.631 115.591 379.828 116.244C379.025 116.897 377.989 117.224 376.72 117.224C375.525 117.224 374.527 116.925 373.724 116.328C372.94 115.712 372.389 114.853 372.072 113.752C371.792 112.931 371.652 112.025 371.652 111.036V102.076C371.652 100.583 372.109 99.3973 373.024 98.52C373.957 97.624 375.161 97.176 376.636 97.176C378.036 97.176 379.175 97.6147 380.052 98.492C380.929 99.3693 381.368 100.527 381.368 101.964V102.384C381.368 102.571 381.275 102.664 381.088 102.664H379.66C379.473 102.664 379.38 102.571 379.38 102.384V102.076C379.38 101.143 379.119 100.387 378.596 99.808C378.073 99.2293 377.411 98.94 376.608 98.94C375.749 98.94 375.04 99.2387 374.48 99.836C373.92 100.415 373.64 101.199 373.64 102.188V106.304C373.64 106.36 373.649 106.397 373.668 106.416C373.705 106.416 373.743 106.397 373.78 106.36C374.471 105.315 375.525 104.792 376.944 104.792C378.083 104.792 379.016 105.081 379.744 105.66C380.491 106.239 381.023 107.069 381.34 108.152ZM379.548 112.94C379.679 112.324 379.744 111.661 379.744 110.952C379.744 110.056 379.651 109.3 379.464 108.684C379.277 107.975 378.941 107.424 378.456 107.032C377.989 106.64 377.392 106.444 376.664 106.444C375.955 106.444 375.357 106.649 374.872 107.06C374.405 107.471 374.079 108.031 373.892 108.74C373.724 109.356 373.64 110.103 373.64 110.98C373.64 111.652 373.705 112.333 373.836 113.024C374.004 113.789 374.331 114.387 374.816 114.816C375.32 115.245 375.945 115.46 376.692 115.46C377.42 115.46 378.027 115.245 378.512 114.816C379.016 114.387 379.361 113.761 379.548 112.94ZM395.394 108.544C395.767 109.384 395.954 110.373 395.954 111.512C395.954 112.688 395.748 113.687 395.338 114.508C394.964 115.367 394.395 116.039 393.63 116.524C392.864 116.991 391.968 117.224 390.942 117.224C389.915 117.224 389.01 116.981 388.226 116.496C387.46 116.011 386.882 115.329 386.49 114.452C386.098 113.612 385.902 112.632 385.902 111.512C385.902 110.429 386.079 109.459 386.434 108.6C386.788 107.741 387.404 107.088 388.282 106.64C388.375 106.603 388.375 106.556 388.282 106.5C387.647 106.145 387.143 105.651 386.77 105.016C386.266 104.195 386.014 103.261 386.014 102.216C386.014 101.133 386.256 100.191 386.742 99.388C387.134 98.6787 387.694 98.128 388.422 97.736C389.168 97.3253 390.008 97.12 390.942 97.12C391.894 97.12 392.724 97.316 393.434 97.708C394.143 98.0813 394.703 98.632 395.114 99.36C395.599 100.163 395.842 101.115 395.842 102.216C395.842 103.261 395.599 104.195 395.114 105.016C394.778 105.595 394.274 106.08 393.602 106.472C393.508 106.528 393.508 106.575 393.602 106.612C394.423 107.041 395.02 107.685 395.394 108.544ZM388.422 100.452C388.142 100.975 388.002 101.591 388.002 102.3C388.002 103.065 388.17 103.756 388.506 104.372C388.748 104.82 389.075 105.165 389.486 105.408C389.896 105.651 390.372 105.772 390.914 105.772C391.474 105.772 391.968 105.641 392.398 105.38C392.827 105.119 393.163 104.755 393.406 104.288C393.704 103.747 393.854 103.075 393.854 102.272C393.854 101.525 393.714 100.9 393.434 100.396C393.191 99.9107 392.855 99.5373 392.426 99.276C391.996 98.996 391.492 98.856 390.914 98.856C390.335 98.856 389.831 98.996 389.402 99.276C388.972 99.556 388.646 99.948 388.422 100.452ZM393.518 113.724C393.816 113.071 393.966 112.296 393.966 111.4C393.966 110.504 393.835 109.739 393.574 109.104C393.35 108.544 393.004 108.115 392.538 107.816C392.09 107.499 391.548 107.34 390.914 107.34C389.663 107.34 388.786 107.928 388.282 109.104C388.02 109.739 387.89 110.504 387.89 111.4C387.89 112.333 388.039 113.108 388.338 113.724C388.562 114.284 388.898 114.723 389.346 115.04C389.794 115.339 390.326 115.488 390.942 115.488C392.155 115.488 393.014 114.9 393.518 113.724Z" fill="#3A3A3A"/>
<path d="M463.668 117C463.463 117 463.388 116.897 463.444 116.692L469.072 99.276C469.091 99.2387 469.081 99.2107 469.044 99.192C469.025 99.1547 468.997 99.136 468.96 99.136H462.632C462.557 99.136 462.52 99.1733 462.52 99.248V100.452C462.52 100.639 462.427 100.732 462.24 100.732H461.12C460.933 100.732 460.84 100.639 460.84 100.452V97.68C460.84 97.4933 460.933 97.4 461.12 97.4H470.92C471.107 97.4 471.2 97.4933 471.2 97.68V98.968C471.2 99.0427 471.181 99.1547 471.144 99.304L465.544 116.776C465.488 116.925 465.376 117 465.208 117H463.668ZM480.158 117.28C478.553 117.28 477.265 116.795 476.294 115.824C475.324 114.853 474.838 113.556 474.838 111.932V102.468C474.838 100.863 475.324 99.5747 476.294 98.604C477.265 97.6333 478.553 97.148 480.158 97.148C481.782 97.148 483.08 97.6333 484.05 98.604C485.04 99.5747 485.534 100.863 485.534 102.468V111.932C485.534 113.556 485.04 114.853 484.05 115.824C483.08 116.795 481.782 117.28 480.158 117.28ZM480.158 115.544C481.185 115.544 482.006 115.227 482.622 114.592C483.238 113.957 483.546 113.117 483.546 112.072V102.356C483.546 101.311 483.238 100.471 482.622 99.836C482.006 99.2013 481.185 98.884 480.158 98.884C479.169 98.884 478.366 99.2013 477.75 99.836C477.134 100.471 476.826 101.311 476.826 102.356V112.072C476.826 113.099 477.134 113.939 477.75 114.592C478.366 115.227 479.169 115.544 480.158 115.544Z" fill="#3A3A3A"/>
<path d="M553.668 117C553.463 117 553.388 116.897 553.444 116.692L559.072 99.276C559.091 99.2387 559.081 99.2107 559.044 99.192C559.025 99.1547 558.997 99.136 558.96 99.136H552.632C552.557 99.136 552.52 99.1733 552.52 99.248V100.452C552.52 100.639 552.427 100.732 552.24 100.732H551.12C550.933 100.732 550.84 100.639 550.84 100.452V97.68C550.84 97.4933 550.933 97.4 551.12 97.4H560.92C561.107 97.4 561.2 97.4933 561.2 97.68V98.968C561.2 99.0427 561.181 99.1547 561.144 99.304L555.544 116.776C555.488 116.925 555.376 117 555.208 117H553.668ZM567.022 115.124C566.966 115.217 566.985 115.264 567.078 115.264H574.778C574.965 115.264 575.058 115.357 575.058 115.544V116.72C575.058 116.907 574.965 117 574.778 117H564.81C564.624 117 564.53 116.907 564.53 116.72V115.488C564.53 115.376 564.568 115.255 564.642 115.124C566.322 112.847 568.198 110.233 570.27 107.284C571.745 105.137 572.482 103.42 572.482 102.132C572.482 101.161 572.202 100.387 571.642 99.808C571.082 99.2107 570.345 98.912 569.43 98.912C568.534 98.912 567.816 99.2107 567.274 99.808C566.733 100.387 566.472 101.161 566.49 102.132V103.084C566.49 103.271 566.397 103.364 566.21 103.364H564.754C564.568 103.364 564.474 103.271 564.474 103.084V101.964C564.512 100.527 564.988 99.3693 565.902 98.492C566.836 97.6147 568.03 97.176 569.486 97.176C570.98 97.176 572.184 97.6333 573.098 98.548C574.013 99.4627 574.47 100.657 574.47 102.132C574.47 103.775 573.705 105.716 572.174 107.956C571.222 109.337 569.72 111.428 567.666 114.228L567.022 115.124Z" fill="#3A3A3A"/>
<path d="M643.668 117C643.463 117 643.388 116.897 643.444 116.692L649.072 99.276C649.091 99.2387 649.081 99.2107 649.044 99.192C649.025 99.1547 648.997 99.136 648.96 99.136H642.632C642.557 99.136 642.52 99.1733 642.52 99.248V100.452C642.52 100.639 642.427 100.732 642.24 100.732H641.12C640.933 100.732 640.84 100.639 640.84 100.452V97.68C640.84 97.4933 640.933 97.4 641.12 97.4H650.92C651.107 97.4 651.2 97.4933 651.2 97.68V98.968C651.2 99.0427 651.181 99.1547 651.144 99.304L645.544 116.776C645.488 116.925 645.376 117 645.208 117H643.668ZM665.226 109.832C665.413 109.832 665.506 109.925 665.506 110.112V111.344C665.506 111.531 665.413 111.624 665.226 111.624H664.19C664.116 111.624 664.078 111.661 664.078 111.736V116.72C664.078 116.907 663.985 117 663.798 117H662.37C662.184 117 662.09 116.907 662.09 116.72V111.736C662.09 111.661 662.053 111.624 661.978 111.624H654.39C654.204 111.624 654.11 111.531 654.11 111.344V110.28C654.11 110.149 654.129 110.037 654.166 109.944L659.15 97.624C659.206 97.4747 659.309 97.4 659.458 97.4H660.998C661.092 97.4 661.157 97.4373 661.194 97.512C661.232 97.568 661.232 97.6427 661.194 97.736L656.434 109.692C656.416 109.729 656.416 109.767 656.434 109.804C656.453 109.823 656.481 109.832 656.518 109.832H661.978C662.053 109.832 662.09 109.795 662.09 109.72V105.296C662.09 105.109 662.184 105.016 662.37 105.016H663.798C663.985 105.016 664.078 105.109 664.078 105.296V109.72C664.078 109.795 664.116 109.832 664.19 109.832H665.226Z" fill="#3A3A3A"/>
<path d="M382.096 179.832C382.283 179.832 382.376 179.925 382.376 180.112V181.344C382.376 181.531 382.283 181.624 382.096 181.624H381.06C380.985 181.624 380.948 181.661 380.948 181.736V186.72C380.948 186.907 380.855 187 380.668 187H379.24C379.053 187 378.96 186.907 378.96 186.72V181.736C378.96 181.661 378.923 181.624 378.848 181.624H371.26C371.073 181.624 370.98 181.531 370.98 181.344V180.28C370.98 180.149 370.999 180.037 371.036 179.944L376.02 167.624C376.076 167.475 376.179 167.4 376.328 167.4H377.868C377.961 167.4 378.027 167.437 378.064 167.512C378.101 167.568 378.101 167.643 378.064 167.736L373.304 179.692C373.285 179.729 373.285 179.767 373.304 179.804C373.323 179.823 373.351 179.832 373.388 179.832H378.848C378.923 179.832 378.96 179.795 378.96 179.72V175.296C378.96 175.109 379.053 175.016 379.24 175.016H380.668C380.855 175.016 380.948 175.109 380.948 175.296V179.72C380.948 179.795 380.985 179.832 381.06 179.832H382.096ZM396.275 177.956C396.518 178.833 396.639 179.841 396.639 180.98C396.639 181.932 396.555 182.753 396.387 183.444C396.107 184.657 395.547 185.591 394.707 186.244C393.886 186.897 392.85 187.224 391.599 187.224C390.33 187.224 389.275 186.888 388.435 186.216C387.595 185.544 387.044 184.601 386.783 183.388C386.69 183.052 386.634 182.707 386.615 182.352V182.296C386.615 182.147 386.699 182.072 386.867 182.072H388.323C388.491 182.072 388.584 182.147 388.603 182.296V182.408L388.715 182.968C388.883 183.771 389.21 184.387 389.695 184.816C390.199 185.245 390.834 185.46 391.599 185.46C392.346 185.46 392.962 185.245 393.447 184.816C393.951 184.368 394.287 183.743 394.455 182.94C394.586 182.417 394.651 181.773 394.651 181.008C394.651 180.299 394.576 179.571 394.427 178.824C394.259 178.077 393.932 177.517 393.447 177.144C392.962 176.752 392.346 176.556 391.599 176.556C390.89 176.556 390.274 176.724 389.751 177.06C389.247 177.377 388.892 177.844 388.687 178.46L388.631 178.572C388.612 178.703 388.519 178.768 388.351 178.768H386.867C386.68 178.768 386.587 178.675 386.587 178.488V167.68C386.587 167.493 386.68 167.4 386.867 167.4H395.743C395.93 167.4 396.023 167.493 396.023 167.68V168.856C396.023 169.043 395.93 169.136 395.743 169.136H388.687C388.612 169.136 388.575 169.173 388.575 169.248V176.108C388.575 176.145 388.584 176.173 388.603 176.192C388.64 176.192 388.678 176.173 388.715 176.136C389.088 175.725 389.555 175.408 390.115 175.184C390.694 174.941 391.31 174.82 391.963 174.82C393.064 174.82 393.979 175.091 394.707 175.632C395.454 176.155 395.976 176.929 396.275 177.956Z" fill="#3A3A3A"/>
<path d="M472.096 179.832C472.283 179.832 472.376 179.925 472.376 180.112V181.344C472.376 181.531 472.283 181.624 472.096 181.624H471.06C470.985 181.624 470.948 181.661 470.948 181.736V186.72C470.948 186.907 470.855 187 470.668 187H469.24C469.053 187 468.96 186.907 468.96 186.72V181.736C468.96 181.661 468.923 181.624 468.848 181.624H461.26C461.073 181.624 460.98 181.531 460.98 181.344V180.28C460.98 180.149 460.999 180.037 461.036 179.944L466.02 167.624C466.076 167.475 466.179 167.4 466.328 167.4H467.868C467.961 167.4 468.027 167.437 468.064 167.512C468.101 167.568 468.101 167.643 468.064 167.736L463.304 179.692C463.285 179.729 463.285 179.767 463.304 179.804C463.323 179.823 463.351 179.832 463.388 179.832H468.848C468.923 179.832 468.96 179.795 468.96 179.72V175.296C468.96 175.109 469.053 175.016 469.24 175.016H470.668C470.855 175.016 470.948 175.109 470.948 175.296V179.72C470.948 179.795 470.985 179.832 471.06 179.832H472.096ZM477.537 187C477.331 187 477.257 186.897 477.313 186.692L482.941 169.276C482.959 169.239 482.95 169.211 482.913 169.192C482.894 169.155 482.866 169.136 482.829 169.136H476.501C476.426 169.136 476.389 169.173 476.389 169.248V170.452C476.389 170.639 476.295 170.732 476.109 170.732H474.989C474.802 170.732 474.709 170.639 474.709 170.452V167.68C474.709 167.493 474.802 167.4 474.989 167.4H484.789C484.975 167.4 485.069 167.493 485.069 167.68V168.968C485.069 169.043 485.05 169.155 485.013 169.304L479.413 186.776C479.357 186.925 479.245 187 479.077 187H477.537Z" fill="#3A3A3A"/>
<path d="M561.34 177.956C561.583 178.833 561.704 179.841 561.704 180.98C561.704 181.932 561.62 182.753 561.452 183.444C561.172 184.657 560.612 185.591 559.772 186.244C558.951 186.897 557.915 187.224 556.664 187.224C555.395 187.224 554.34 186.888 553.5 186.216C552.66 185.544 552.109 184.601 551.848 183.388C551.755 183.052 551.699 182.707 551.68 182.352V182.296C551.68 182.147 551.764 182.072 551.932 182.072H553.388C553.556 182.072 553.649 182.147 553.668 182.296V182.408L553.78 182.968C553.948 183.771 554.275 184.387 554.76 184.816C555.264 185.245 555.899 185.46 556.664 185.46C557.411 185.46 558.027 185.245 558.512 184.816C559.016 184.368 559.352 183.743 559.52 182.94C559.651 182.417 559.716 181.773 559.716 181.008C559.716 180.299 559.641 179.571 559.492 178.824C559.324 178.077 558.997 177.517 558.512 177.144C558.027 176.752 557.411 176.556 556.664 176.556C555.955 176.556 555.339 176.724 554.816 177.06C554.312 177.377 553.957 177.844 553.752 178.46L553.696 178.572C553.677 178.703 553.584 178.768 553.416 178.768H551.932C551.745 178.768 551.652 178.675 551.652 178.488V167.68C551.652 167.493 551.745 167.4 551.932 167.4H560.808C560.995 167.4 561.088 167.493 561.088 167.68V168.856C561.088 169.043 560.995 169.136 560.808 169.136H553.752C553.677 169.136 553.64 169.173 553.64 169.248V176.108C553.64 176.145 553.649 176.173 553.668 176.192C553.705 176.192 553.743 176.173 553.78 176.136C554.153 175.725 554.62 175.408 555.18 175.184C555.759 174.941 556.375 174.82 557.028 174.82C558.129 174.82 559.044 175.091 559.772 175.632C560.519 176.155 561.041 176.929 561.34 177.956ZM571.334 187.28C569.729 187.28 568.441 186.795 567.47 185.824C566.5 184.853 566.014 183.556 566.014 181.932V172.468C566.014 170.863 566.5 169.575 567.47 168.604C568.441 167.633 569.729 167.148 571.334 167.148C572.958 167.148 574.256 167.633 575.226 168.604C576.216 169.575 576.71 170.863 576.71 172.468V181.932C576.71 183.556 576.216 184.853 575.226 185.824C574.256 186.795 572.958 187.28 571.334 187.28ZM571.334 185.544C572.361 185.544 573.182 185.227 573.798 184.592C574.414 183.957 574.722 183.117 574.722 182.072V172.356C574.722 171.311 574.414 170.471 573.798 169.836C573.182 169.201 572.361 168.884 571.334 168.884C570.345 168.884 569.542 169.201 568.926 169.836C568.31 170.471 568.002 171.311 568.002 172.356V182.072C568.002 183.099 568.31 183.939 568.926 184.592C569.542 185.227 570.345 185.544 571.334 185.544Z" fill="#3A3A3A"/>
<path d="M651.34 177.956C651.583 178.833 651.704 179.841 651.704 180.98C651.704 181.932 651.62 182.753 651.452 183.444C651.172 184.657 650.612 185.591 649.772 186.244C648.951 186.897 647.915 187.224 646.664 187.224C645.395 187.224 644.34 186.888 643.5 186.216C642.66 185.544 642.109 184.601 641.848 183.388C641.755 183.052 641.699 182.707 641.68 182.352V182.296C641.68 182.147 641.764 182.072 641.932 182.072H643.388C643.556 182.072 643.649 182.147 643.668 182.296V182.408L643.78 182.968C643.948 183.771 644.275 184.387 644.76 184.816C645.264 185.245 645.899 185.46 646.664 185.46C647.411 185.46 648.027 185.245 648.512 184.816C649.016 184.368 649.352 183.743 649.52 182.94C649.651 182.417 649.716 181.773 649.716 181.008C649.716 180.299 649.641 179.571 649.492 178.824C649.324 178.077 648.997 177.517 648.512 177.144C648.027 176.752 647.411 176.556 646.664 176.556C645.955 176.556 645.339 176.724 644.816 177.06C644.312 177.377 643.957 177.844 643.752 178.46L643.696 178.572C643.677 178.703 643.584 178.768 643.416 178.768H641.932C641.745 178.768 641.652 178.675 641.652 178.488V167.68C641.652 167.493 641.745 167.4 641.932 167.4H650.808C650.995 167.4 651.088 167.493 651.088 167.68V168.856C651.088 169.043 650.995 169.136 650.808 169.136H643.752C643.677 169.136 643.64 169.173 643.64 169.248V176.108C643.64 176.145 643.649 176.173 643.668 176.192C643.705 176.192 643.743 176.173 643.78 176.136C644.153 175.725 644.62 175.408 645.18 175.184C645.759 174.941 646.375 174.82 647.028 174.82C648.129 174.82 649.044 175.091 649.772 175.632C650.519 176.155 651.041 176.929 651.34 177.956ZM658.198 185.124C658.142 185.217 658.161 185.264 658.254 185.264H665.954C666.141 185.264 666.234 185.357 666.234 185.544V186.72C666.234 186.907 666.141 187 665.954 187H655.986C655.8 187 655.706 186.907 655.706 186.72V185.488C655.706 185.376 655.744 185.255 655.818 185.124C657.498 182.847 659.374 180.233 661.446 177.284C662.921 175.137 663.658 173.42 663.658 172.132C663.658 171.161 663.378 170.387 662.818 169.808C662.258 169.211 661.521 168.912 660.606 168.912C659.71 168.912 658.992 169.211 658.45 169.808C657.909 170.387 657.648 171.161 657.666 172.132V173.084C657.666 173.271 657.573 173.364 657.386 173.364H655.93C655.744 173.364 655.65 173.271 655.65 173.084V171.964C655.688 170.527 656.164 169.369 657.078 168.492C658.012 167.615 659.206 167.176 660.662 167.176C662.156 167.176 663.36 167.633 664.274 168.548C665.189 169.463 665.646 170.657 665.646 172.132C665.646 173.775 664.881 175.716 663.35 177.956C662.398 179.337 660.896 181.428 658.842 184.228L658.198 185.124Z" fill="#3A3A3A"/>
<path d="M381.34 247.956C381.583 248.833 381.704 249.841 381.704 250.98C381.704 251.932 381.62 252.753 381.452 253.444C381.172 254.657 380.612 255.591 379.772 256.244C378.951 256.897 377.915 257.224 376.664 257.224C375.395 257.224 374.34 256.888 373.5 256.216C372.66 255.544 372.109 254.601 371.848 253.388C371.755 253.052 371.699 252.707 371.68 252.352V252.296C371.68 252.147 371.764 252.072 371.932 252.072H373.388C373.556 252.072 373.649 252.147 373.668 252.296V252.408L373.78 252.968C373.948 253.771 374.275 254.387 374.76 254.816C375.264 255.245 375.899 255.46 376.664 255.46C377.411 255.46 378.027 255.245 378.512 254.816C379.016 254.368 379.352 253.743 379.52 252.94C379.651 252.417 379.716 251.773 379.716 251.008C379.716 250.299 379.641 249.571 379.492 248.824C379.324 248.077 378.997 247.517 378.512 247.144C378.027 246.752 377.411 246.556 376.664 246.556C375.955 246.556 375.339 246.724 374.816 247.06C374.312 247.377 373.957 247.844 373.752 248.46L373.696 248.572C373.677 248.703 373.584 248.768 373.416 248.768H371.932C371.745 248.768 371.652 248.675 371.652 248.488V237.68C371.652 237.493 371.745 237.4 371.932 237.4H380.808C380.995 237.4 381.088 237.493 381.088 237.68V238.856C381.088 239.043 380.995 239.136 380.808 239.136H373.752C373.677 239.136 373.64 239.173 373.64 239.248V246.108C373.64 246.145 373.649 246.173 373.668 246.192C373.705 246.192 373.743 246.173 373.78 246.136C374.153 245.725 374.62 245.408 375.18 245.184C375.759 244.941 376.375 244.82 377.028 244.82C378.129 244.82 379.044 245.091 379.772 245.632C380.519 246.155 381.041 246.929 381.34 247.956ZM396.402 249.832C396.589 249.832 396.682 249.925 396.682 250.112V251.344C396.682 251.531 396.589 251.624 396.402 251.624H395.366C395.292 251.624 395.254 251.661 395.254 251.736V256.72C395.254 256.907 395.161 257 394.974 257H393.546C393.36 257 393.266 256.907 393.266 256.72V251.736C393.266 251.661 393.229 251.624 393.154 251.624H385.566C385.38 251.624 385.286 251.531 385.286 251.344V250.28C385.286 250.149 385.305 250.037 385.342 249.944L390.326 237.624C390.382 237.475 390.485 237.4 390.634 237.4H392.174C392.268 237.4 392.333 237.437 392.37 237.512C392.408 237.568 392.408 237.643 392.37 237.736L387.61 249.692C387.592 249.729 387.592 249.767 387.61 249.804C387.629 249.823 387.657 249.832 387.694 249.832H393.154C393.229 249.832 393.266 249.795 393.266 249.72V245.296C393.266 245.109 393.36 245.016 393.546 245.016H394.974C395.161 245.016 395.254 245.109 395.254 245.296V249.72C395.254 249.795 395.292 249.832 395.366 249.832H396.402Z" fill="#3A3A3A"/>
<path d="M471.34 247.956C471.583 248.833 471.704 249.841 471.704 250.98C471.704 251.932 471.62 252.753 471.452 253.444C471.172 254.657 470.612 255.591 469.772 256.244C468.951 256.897 467.915 257.224 466.664 257.224C465.395 257.224 464.34 256.888 463.5 256.216C462.66 255.544 462.109 254.601 461.848 253.388C461.755 253.052 461.699 252.707 461.68 252.352V252.296C461.68 252.147 461.764 252.072 461.932 252.072H463.388C463.556 252.072 463.649 252.147 463.668 252.296V252.408L463.78 252.968C463.948 253.771 464.275 254.387 464.76 254.816C465.264 255.245 465.899 255.46 466.664 255.46C467.411 255.46 468.027 255.245 468.512 254.816C469.016 254.368 469.352 253.743 469.52 252.94C469.651 252.417 469.716 251.773 469.716 251.008C469.716 250.299 469.641 249.571 469.492 248.824C469.324 248.077 468.997 247.517 468.512 247.144C468.027 246.752 467.411 246.556 466.664 246.556C465.955 246.556 465.339 246.724 464.816 247.06C464.312 247.377 463.957 247.844 463.752 248.46L463.696 248.572C463.677 248.703 463.584 248.768 463.416 248.768H461.932C461.745 248.768 461.652 248.675 461.652 248.488V237.68C461.652 237.493 461.745 237.4 461.932 237.4H470.808C470.995 237.4 471.088 237.493 471.088 237.68V238.856C471.088 239.043 470.995 239.136 470.808 239.136H463.752C463.677 239.136 463.64 239.173 463.64 239.248V246.108C463.64 246.145 463.649 246.173 463.668 246.192C463.705 246.192 463.743 246.173 463.78 246.136C464.153 245.725 464.62 245.408 465.18 245.184C465.759 244.941 466.375 244.82 467.028 244.82C468.129 244.82 469.044 245.091 469.772 245.632C470.519 246.155 471.041 246.929 471.34 247.956ZM485.646 248.152C485.908 248.88 486.038 249.832 486.038 251.008C486.038 252.016 485.945 252.828 485.758 253.444C485.478 254.657 484.937 255.591 484.134 256.244C483.332 256.897 482.296 257.224 481.026 257.224C479.832 257.224 478.833 256.925 478.03 256.328C477.246 255.712 476.696 254.853 476.378 253.752C476.098 252.931 475.958 252.025 475.958 251.036V242.076C475.958 240.583 476.416 239.397 477.33 238.52C478.264 237.624 479.468 237.176 480.942 237.176C482.342 237.176 483.481 237.615 484.358 238.492C485.236 239.369 485.674 240.527 485.674 241.964V242.384C485.674 242.571 485.581 242.664 485.394 242.664H483.966C483.78 242.664 483.686 242.571 483.686 242.384V242.076C483.686 241.143 483.425 240.387 482.902 239.808C482.38 239.229 481.717 238.94 480.914 238.94C480.056 238.94 479.346 239.239 478.786 239.836C478.226 240.415 477.946 241.199 477.946 242.188V246.304C477.946 246.36 477.956 246.397 477.974 246.416C478.012 246.416 478.049 246.397 478.086 246.36C478.777 245.315 479.832 244.792 481.25 244.792C482.389 244.792 483.322 245.081 484.05 245.66C484.797 246.239 485.329 247.069 485.646 248.152ZM483.854 252.94C483.985 252.324 484.05 251.661 484.05 250.952C484.05 250.056 483.957 249.3 483.77 248.684C483.584 247.975 483.248 247.424 482.762 247.032C482.296 246.64 481.698 246.444 480.97 246.444C480.261 246.444 479.664 246.649 479.178 247.06C478.712 247.471 478.385 248.031 478.198 248.74C478.03 249.356 477.946 250.103 477.946 250.98C477.946 251.652 478.012 252.333 478.142 253.024C478.31 253.789 478.637 254.387 479.122 254.816C479.626 255.245 480.252 255.46 480.998 255.46C481.726 255.46 482.333 255.245 482.818 254.816C483.322 254.387 483.668 253.761 483.854 252.94Z" fill="#3A3A3A"/>
<path d="M561.34 247.956C561.583 248.833 561.704 249.841 561.704 250.98C561.704 251.932 561.62 252.753 561.452 253.444C561.172 254.657 560.612 255.591 559.772 256.244C558.951 256.897 557.915 257.224 556.664 257.224C555.395 257.224 554.34 256.888 553.5 256.216C552.66 255.544 552.109 254.601 551.848 253.388C551.755 253.052 551.699 252.707 551.68 252.352V252.296C551.68 252.147 551.764 252.072 551.932 252.072H553.388C553.556 252.072 553.649 252.147 553.668 252.296V252.408L553.78 252.968C553.948 253.771 554.275 254.387 554.76 254.816C555.264 255.245 555.899 255.46 556.664 255.46C557.411 255.46 558.027 255.245 558.512 254.816C559.016 254.368 559.352 253.743 559.52 252.94C559.651 252.417 559.716 251.773 559.716 251.008C559.716 250.299 559.641 249.571 559.492 248.824C559.324 248.077 558.997 247.517 558.512 247.144C558.027 246.752 557.411 246.556 556.664 246.556C555.955 246.556 555.339 246.724 554.816 247.06C554.312 247.377 553.957 247.844 553.752 248.46L553.696 248.572C553.677 248.703 553.584 248.768 553.416 248.768H551.932C551.745 248.768 551.652 248.675 551.652 248.488V237.68C551.652 237.493 551.745 237.4 551.932 237.4H560.808C560.995 237.4 561.088 237.493 561.088 237.68V238.856C561.088 239.043 560.995 239.136 560.808 239.136H553.752C553.677 239.136 553.64 239.173 553.64 239.248V246.108C553.64 246.145 553.649 246.173 553.668 246.192C553.705 246.192 553.743 246.173 553.78 246.136C554.153 245.725 554.62 245.408 555.18 245.184C555.759 244.941 556.375 244.82 557.028 244.82C558.129 244.82 559.044 245.091 559.772 245.632C560.519 246.155 561.041 246.929 561.34 247.956ZM575.366 248.544C575.74 249.384 575.926 250.373 575.926 251.512C575.926 252.688 575.721 253.687 575.31 254.508C574.937 255.367 574.368 256.039 573.602 256.524C572.837 256.991 571.941 257.224 570.914 257.224C569.888 257.224 568.982 256.981 568.198 256.496C567.433 256.011 566.854 255.329 566.462 254.452C566.07 253.612 565.874 252.632 565.874 251.512C565.874 250.429 566.052 249.459 566.406 248.6C566.761 247.741 567.377 247.088 568.254 246.64C568.348 246.603 568.348 246.556 568.254 246.5C567.62 246.145 567.116 245.651 566.742 245.016C566.238 244.195 565.986 243.261 565.986 242.216C565.986 241.133 566.229 240.191 566.714 239.388C567.106 238.679 567.666 238.128 568.394 237.736C569.141 237.325 569.981 237.12 570.914 237.12C571.866 237.12 572.697 237.316 573.406 237.708C574.116 238.081 574.676 238.632 575.086 239.36C575.572 240.163 575.814 241.115 575.814 242.216C575.814 243.261 575.572 244.195 575.086 245.016C574.75 245.595 574.246 246.08 573.574 246.472C573.481 246.528 573.481 246.575 573.574 246.612C574.396 247.041 574.993 247.685 575.366 248.544ZM568.394 240.452C568.114 240.975 567.974 241.591 567.974 242.3C567.974 243.065 568.142 243.756 568.478 244.372C568.721 244.82 569.048 245.165 569.458 245.408C569.869 245.651 570.345 245.772 570.886 245.772C571.446 245.772 571.941 245.641 572.37 245.38C572.8 245.119 573.136 244.755 573.378 244.288C573.677 243.747 573.826 243.075 573.826 242.272C573.826 241.525 573.686 240.9 573.406 240.396C573.164 239.911 572.828 239.537 572.398 239.276C571.969 238.996 571.465 238.856 570.886 238.856C570.308 238.856 569.804 238.996 569.374 239.276C568.945 239.556 568.618 239.948 568.394 240.452ZM573.49 253.724C573.789 253.071 573.938 252.296 573.938 251.4C573.938 250.504 573.808 249.739 573.546 249.104C573.322 248.544 572.977 248.115 572.51 247.816C572.062 247.499 571.521 247.34 570.886 247.34C569.636 247.34 568.758 247.928 568.254 249.104C567.993 249.739 567.862 250.504 567.862 251.4C567.862 252.333 568.012 253.108 568.31 253.724C568.534 254.284 568.87 254.723 569.318 255.04C569.766 255.339 570.298 255.488 570.914 255.488C572.128 255.488 572.986 254.9 573.49 253.724Z" fill="#3A3A3A"/>
<path d="M651.34 248.152C651.601 248.88 651.732 249.832 651.732 251.008C651.732 252.016 651.639 252.828 651.452 253.444C651.172 254.657 650.631 255.591 649.828 256.244C649.025 256.897 647.989 257.224 646.72 257.224C645.525 257.224 644.527 256.925 643.724 256.328C642.94 255.712 642.389 254.853 642.072 253.752C641.792 252.931 641.652 252.025 641.652 251.036V242.076C641.652 240.583 642.109 239.397 643.024 238.52C643.957 237.624 645.161 237.176 646.636 237.176C648.036 237.176 649.175 237.615 650.052 238.492C650.929 239.369 651.368 240.527 651.368 241.964V242.384C651.368 242.571 651.275 242.664 651.088 242.664H649.66C649.473 242.664 649.38 242.571 649.38 242.384V242.076C649.38 241.143 649.119 240.387 648.596 239.808C648.073 239.229 647.411 238.94 646.608 238.94C645.749 238.94 645.04 239.239 644.48 239.836C643.92 240.415 643.64 241.199 643.64 242.188V246.304C643.64 246.36 643.649 246.397 643.668 246.416C643.705 246.416 643.743 246.397 643.78 246.36C644.471 245.315 645.525 244.792 646.944 244.792C648.083 244.792 649.016 245.081 649.744 245.66C650.491 246.239 651.023 247.069 651.34 248.152ZM649.548 252.94C649.679 252.324 649.744 251.661 649.744 250.952C649.744 250.056 649.651 249.3 649.464 248.684C649.277 247.975 648.941 247.424 648.456 247.032C647.989 246.64 647.392 246.444 646.664 246.444C645.955 246.444 645.357 246.649 644.872 247.06C644.405 247.471 644.079 248.031 643.892 248.74C643.724 249.356 643.64 250.103 643.64 250.98C643.64 251.652 643.705 252.333 643.836 253.024C644.004 253.789 644.331 254.387 644.816 254.816C645.32 255.245 645.945 255.46 646.692 255.46C647.42 255.46 648.027 255.245 648.512 254.816C649.016 254.387 649.361 253.761 649.548 252.94ZM661.362 257.28C659.756 257.28 658.468 256.795 657.498 255.824C656.527 254.853 656.042 253.556 656.042 251.932V242.468C656.042 240.863 656.527 239.575 657.498 238.604C658.468 237.633 659.756 237.148 661.362 237.148C662.986 237.148 664.283 237.633 665.254 238.604C666.243 239.575 666.738 240.863 666.738 242.468V251.932C666.738 253.556 666.243 254.853 665.254 255.824C664.283 256.795 662.986 257.28 661.362 257.28ZM661.362 255.544C662.388 255.544 663.21 255.227 663.826 254.592C664.442 253.957 664.75 253.117 664.75 252.072V242.356C664.75 241.311 664.442 240.471 663.826 239.836C663.21 239.201 662.388 238.884 661.362 238.884C660.372 238.884 659.57 239.201 658.954 239.836C658.338 240.471 658.03 241.311 658.03 242.356V252.072C658.03 253.099 658.338 253.939 658.954 254.592C659.57 255.227 660.372 255.544 661.362 255.544Z" fill="#3A3A3A"/>
</g>
<defs>
<clipPath id="clip0">
<rect width="700" height="280" fill="white"/>
</clipPath>
</defs>
</svg>
